<svg xmlns="http://www.w3.org/2000/svg" xmlns:xlink="http://www.w3.org/1999/xlink" width="200" zoomAndPan="magnify" viewBox="0 0 150 149.999998" height="200" preserveAspectRatio="xMidYMid meet" version="1.0"><defs><clipPath id="b8266d84b5"><path d="M 9.238281 17.460938 L 140.761719 17.460938 L 140.761719 132.539062 L 9.238281 132.539062 Z M 9.238281 17.460938 " clip-rule="nonzero"/></clipPath><clipPath id="f378bfc7b4"><path d="M 75 17.460938 L 140.761719 132.539062 L 9.238281 132.539062 L 75 17.460938 " clip-rule="nonzero"/></clipPath><clipPath id="4df6e18288"><path d="M 7 15.148438 L 76.726562 15.148438 L 76.726562 134.398438 L 7 134.398438 Z M 7 15.148438 " clip-rule="nonzero"/></clipPath><clipPath id="2e24ddd0f1"><path d="M 76.199219 19.050781 C 69.148438 30.375 63.976562 42.824219 58.199219 53.476562 C 50.773438 67.125 39.074219 85.199219 31.050781 99.300781 C 24.300781 111.148438 16.351562 128.324219 13.050781 132.300781 C 12.148438 133.351562 11.699219 133.726562 11.023438 133.949219 C 10.425781 134.101562 9.824219 134.023438 9.300781 133.726562 C 8.699219 133.351562 7.875 132.300781 7.726562 131.625 C 7.574219 131.023438 7.726562 130.425781 8.023438 129.898438 C 8.398438 129.300781 9.523438 128.625 10.199219 128.476562 C 10.800781 128.398438 11.476562 128.550781 11.925781 128.851562 C 12.375 129.148438 12.898438 129.675781 13.050781 130.273438 C 13.273438 130.949219 13.125 132.226562 12.75 132.824219 C 12.449219 133.351562 11.925781 133.726562 11.324219 133.875 C 10.648438 134.023438 9.375 133.875 8.773438 133.425781 C 8.175781 132.976562 7.726562 131.925781 7.726562 131.023438 C 7.726562 129.898438 8.476562 129.226562 9.523438 127.199219 C 14.550781 117.601562 45.449219 66.601562 55.949219 47.324219 C 61.726562 36.675781 65.398438 27.523438 68.773438 22.050781 C 70.5 19.199219 71.773438 16.5 73.273438 15.898438 C 74.101562 15.601562 75.300781 15.898438 75.824219 16.425781 C 76.351562 16.949219 76.199219 19.050781 76.199219 19.050781 " clip-rule="nonzero"/></clipPath><clipPath id="014e5499a4"><path d="M 7.050781 130 L 12 130 L 12 134 L 7.050781 134 Z M 7.050781 130 " clip-rule="nonzero"/></clipPath><clipPath id="4b5861c7e3"><path d="M 11.851562 131.324219 C 9.976562 134.324219 8.175781 133.800781 7.800781 133.199219 C 7.425781 132.601562 7.726562 130.726562 8.324219 130.273438 C 8.925781 129.824219 11.324219 130.425781 11.324219 130.425781 " clip-rule="nonzero"/></clipPath><clipPath id="ad62b3f993"><path d="M 7 128 L 144.675781 128 L 144.675781 137 L 7 137 Z M 7 128 " clip-rule="nonzero"/></clipPath><clipPath id="76c1656f86"><path d="M 9.449219 129.75 C 14.398438 129.148438 16.574219 130.351562 17.925781 130.273438 C 18.824219 130.199219 19.425781 129.523438 20.25 129.523438 C 21.148438 129.523438 22.199219 130.5 23.101562 130.5 C 23.925781 130.5 24 129.898438 25.351562 129.675781 C 34.800781 128.023438 133.199219 129.226562 141.449219 130.5 C 142.425781 130.648438 142.648438 130.648438 143.101562 131.023438 C 143.625 131.476562 144.226562 132.601562 144.148438 133.351562 C 144.074219 134.101562 143.476562 135.226562 142.800781 135.601562 C 142.050781 135.976562 140.175781 135.75 139.5 135.226562 C 138.898438 134.699219 138.449219 133.5 138.675781 132.75 C 138.898438 131.925781 140.324219 130.726562 141.148438 130.5 C 141.75 130.351562 142.351562 130.574219 142.800781 130.875 C 143.398438 131.25 144.074219 132.300781 144.148438 133.050781 C 144.226562 133.800781 143.625 135 143.101562 135.449219 C 142.648438 135.824219 142.425781 135.824219 141.449219 135.976562 C 133.273438 137.25 47.773438 135.75 26.324219 135.074219 C 18 134.851562 11.476562 135.601562 8.925781 134.175781 C 7.949219 133.648438 7.351562 132.75 7.425781 132 C 7.5 131.25 9.449219 129.75 9.449219 129.75 " clip-rule="nonzero"/></clipPath><clipPath id="78949bb693"><path d="M 10.199219 128.023438 L 29.699219 128.023438 L 29.699219 134.773438 L 10.199219 134.773438 Z M 10.199219 128.023438 " clip-rule="nonzero"/></clipPath><clipPath id="147b6da51a"><path d="M 26.699219 134.25 C 11.925781 134.101562 11.398438 133.574219 11.101562 132.976562 C 10.875 132.449219 10.800781 131.851562 11.023438 131.324219 C 11.25 130.726562 12 129.898438 12.601562 129.601562 C 13.125 129.375 13.726562 129.300781 14.25 129.601562 C 14.925781 129.976562 15.976562 131.324219 15.976562 132.148438 C 15.976562 132.824219 15.375 133.875 14.773438 134.175781 C 14.023438 134.550781 12.300781 134.398438 11.699219 133.875 C 11.175781 133.425781 10.800781 132.300781 10.949219 131.625 C 11.175781 130.875 11.925781 129.976562 13.125 129.523438 C 15.675781 128.476562 24.898438 129 27.300781 129.75 C 28.199219 130.050781 28.726562 130.425781 29.023438 130.949219 C 29.324219 131.398438 29.398438 132.074219 29.175781 132.601562 C 28.875 133.273438 26.699219 134.25 26.699219 134.25 " clip-rule="nonzero"/></clipPath><clipPath id="415dae0a74"><path d="M 73 15.148438 L 144.523438 15.148438 L 144.523438 135.898438 L 73 135.898438 Z M 73 15.148438 " clip-rule="nonzero"/></clipPath><clipPath id="8c10cf13c9"><path d="M 139.875 134.101562 C 132.074219 122.398438 122.773438 102.300781 115.949219 90.148438 C 109.726562 79.125 102.675781 68.699219 97.125 59.101562 C 92.476562 50.925781 88.648438 42.976562 84.75 36.226562 C 81.601562 30.675781 77.773438 23.625 75.675781 21.375 C 74.925781 20.550781 74.101562 20.625 73.726562 20.023438 C 73.351562 19.5 73.199219 18.898438 73.273438 18.300781 C 73.425781 17.625 74.175781 16.574219 74.773438 16.199219 C 75.300781 15.898438 75.898438 15.75 76.5 15.898438 C 77.175781 16.050781 78.226562 16.800781 78.523438 17.476562 C 78.824219 18.148438 78.898438 19.425781 78.449219 20.023438 C 77.925781 20.773438 76.199219 21.523438 75.300781 21.300781 C 74.476562 21.074219 73.351562 19.5 73.273438 18.601562 C 73.199219 17.851562 73.800781 16.726562 74.476562 16.351562 C 75.226562 15.898438 76.800781 15.976562 77.851562 16.5 C 79.273438 17.175781 79.949219 18.601562 81.824219 21.226562 C 88.800781 31.199219 114.75 77.101562 125.25 96.675781 C 131.773438 108.824219 136.5 120.675781 140.101562 126.75 C 141.75 129.523438 143.851562 131.25 144.148438 132.601562 C 144.300781 133.273438 144.148438 133.726562 143.925781 134.175781 C 143.699219 134.625 143.101562 135.074219 142.648438 135.226562 C 142.199219 135.375 141.523438 135.375 141.074219 135.226562 C 140.625 135.074219 139.875 134.101562 139.875 134.101562 " clip-rule="nonzero"/></clipPath><clipPath id="5b5ba10d02"><path d="M 73 29 L 80.699219 29 L 80.699219 95.699219 L 73 95.699219 Z M 73 29 " clip-rule="nonzero"/></clipPath><clipPath id="409f8b0e12"><path d="M 78.148438 31.875 C 79.875 93.75 79.875 93.976562 79.5 94.425781 C 79.050781 94.949219 77.925781 95.550781 77.175781 95.550781 C 76.425781 95.550781 75.375 94.800781 74.925781 94.199219 C 74.550781 93.75 74.476562 93 74.550781 92.476562 C 74.625 91.949219 74.851562 91.273438 75.300781 90.898438 C 75.824219 90.449219 77.023438 89.851562 77.773438 90.074219 C 78.601562 90.300781 79.800781 91.648438 80.023438 92.476562 C 80.175781 93.074219 80.023438 93.75 79.648438 94.199219 C 79.273438 94.800781 78.148438 95.476562 77.476562 95.550781 C 76.875 95.625 76.199219 95.398438 75.75 95.023438 C 75.226562 94.574219 74.851562 93.976562 74.550781 92.773438 C 73.425781 88.648438 73.648438 73.273438 73.648438 64.5 C 73.648438 56.851562 74.773438 47.773438 74.324219 43.050781 C 74.101562 40.648438 73.273438 39.675781 73.199219 37.726562 C 73.125 35.476562 73.050781 31.425781 74.101562 30.300781 C 74.699219 29.625 75.976562 29.476562 76.648438 29.699219 C 77.324219 29.925781 78.148438 31.875 78.148438 31.875 " clip-rule="nonzero"/></clipPath><clipPath id="08e6a105bc"><path d="M 68.324219 106 L 86 106 L 86 122 L 68.324219 122 Z M 68.324219 106 " clip-rule="nonzero"/></clipPath><clipPath id="42f39e8aed"><path d="M 78.976562 111.601562 C 74.476562 112.199219 73.648438 112.800781 73.425781 113.476562 C 73.199219 114.148438 73.273438 115.273438 73.800781 115.800781 C 74.550781 116.625 77.476562 117.148438 78.601562 116.773438 C 79.351562 116.550781 80.175781 115.648438 80.175781 115.050781 C 80.175781 114.449219 79.273438 113.476562 78.523438 113.101562 C 77.699219 112.648438 76.199219 113.25 75.523438 112.800781 C 74.925781 112.351562 74.398438 111.226562 74.476562 110.476562 C 74.550781 109.726562 75.148438 108.675781 75.75 108.300781 C 76.425781 107.925781 77.625 107.851562 78.300781 108.148438 C 78.976562 108.449219 79.726562 109.425781 79.800781 110.175781 C 79.875 111.074219 79.050781 112.648438 78.300781 113.101562 C 77.625 113.476562 76.351562 113.398438 75.75 112.949219 C 75.074219 112.425781 74.398438 110.699219 74.550781 109.875 C 74.699219 109.125 75.449219 108.375 76.273438 108.074219 C 77.324219 107.625 79.050781 107.773438 80.398438 108.148438 C 81.824219 108.601562 83.699219 109.648438 84.523438 110.699219 C 85.199219 111.523438 85.5 112.726562 85.574219 113.699219 C 85.648438 114.523438 85.574219 115.273438 85.199219 116.175781 C 84.675781 117.449219 83.699219 119.398438 82.351562 120.375 C 80.925781 121.425781 78.523438 121.949219 76.648438 121.949219 C 74.925781 121.949219 72.824219 121.273438 71.550781 120.675781 C 70.574219 120.226562 69.75 119.851562 69.300781 118.949219 C 68.625 117.675781 68.851562 114.523438 69.074219 113.023438 C 69.226562 112.050781 69.375 111.449219 69.75 110.773438 C 70.125 110.101562 70.648438 109.574219 71.476562 108.976562 C 72.675781 108.148438 74.851562 106.800781 76.425781 106.574219 C 77.699219 106.425781 79.125 106.726562 80.023438 107.175781 C 80.773438 107.476562 81.449219 108.074219 81.675781 108.601562 C 81.898438 109.050781 81.898438 109.800781 81.675781 110.25 C 81.449219 110.699219 81 111.226562 80.550781 111.449219 C 80.101562 111.675781 78.976562 111.601562 78.976562 111.601562 " clip-rule="nonzero"/></clipPath><clipPath id="d48c285fca"><path d="M 70 109 L 83 109 L 83 118 L 70 118 Z M 70 109 " clip-rule="nonzero"/></clipPath><clipPath id="8ffcd294fe"><path d="M 72.976562 112.5 C 78.226562 113.625 79.125 115.351562 78.898438 115.875 C 78.675781 116.324219 77.398438 116.476562 76.574219 116.25 C 75.375 115.949219 73.199219 114 72.75 113.023438 C 72.449219 112.5 72.449219 111.976562 72.675781 111.449219 C 72.976562 110.773438 74.324219 109.648438 75.148438 109.574219 C 75.824219 109.5 76.875 110.101562 77.25 110.699219 C 77.625 111.300781 77.773438 112.425781 77.476562 113.101562 C 77.101562 113.851562 75.675781 114.675781 74.851562 114.675781 C 74.175781 114.675781 73.199219 114 72.898438 113.324219 C 72.601562 112.574219 72.898438 110.851562 73.425781 110.25 C 73.875 109.726562 75 109.5 75.675781 109.648438 C 76.351562 109.800781 76.726562 110.925781 77.476562 111.226562 C 78.375 111.601562 79.800781 111 80.699219 111.375 C 81.449219 111.75 82.273438 112.425781 82.5 113.175781 C 82.800781 114.074219 82.574219 115.800781 81.898438 116.550781 C 81.226562 117.300781 79.875 117.523438 78.601562 117.675781 C 76.800781 117.898438 73.199219 117.523438 71.925781 116.925781 C 71.25 116.625 70.875 116.25 70.648438 115.800781 C 70.425781 115.351562 70.273438 114.675781 70.425781 114.226562 C 70.574219 113.699219 70.949219 113.175781 71.398438 112.875 C 71.851562 112.574219 72.976562 112.5 72.976562 112.5 " clip-rule="nonzero"/></clipPath><clipPath id="f937a5fcc7"><path d="M 71 31.273438 L 79.648438 31.273438 L 79.648438 95.773438 L 71 95.773438 Z M 71 31.273438 " clip-rule="nonzero"/></clipPath><clipPath id="345e8a6fb4"><path d="M 78.148438 33.226562 C 78.523438 92.023438 79.273438 91.949219 79.351562 92.476562 C 79.425781 93.074219 78.75 94.273438 78.148438 94.726562 C 77.625 95.101562 76.875 95.324219 76.273438 95.175781 C 75.601562 95.023438 74.550781 94.425781 74.175781 93.75 C 73.800781 93.148438 73.648438 92.101562 74.023438 91.425781 C 74.398438 90.675781 76.050781 89.625 76.949219 89.699219 C 77.699219 89.699219 78.75 90.449219 79.050781 91.199219 C 79.351562 92.023438 79.050781 93.898438 78.449219 94.5 C 77.925781 95.023438 76.648438 95.25 75.898438 95.101562 C 75.148438 94.949219 74.25 94.199219 74.023438 93.449219 C 73.800781 92.625 74.25 90.824219 74.925781 90.226562 C 75.523438 89.699219 76.800781 89.550781 77.476562 89.851562 C 78.300781 90.226562 79.273438 91.648438 79.351562 92.476562 C 79.425781 93.226562 78.75 94.273438 78.148438 94.726562 C 77.550781 95.175781 76.351562 95.398438 75.601562 95.023438 C 74.550781 94.5 73.574219 93.226562 72.898438 90.898438 C 70.574219 82.949219 70.875 39.300781 73.574219 33.300781 C 74.175781 31.949219 75.074219 31.273438 75.824219 31.273438 C 76.574219 31.273438 78.148438 33.226562 78.148438 33.226562 " clip-rule="nonzero"/></clipPath><clipPath id="31c0584a9f"><path d="M 73 30 L 81.898438 30 L 81.898438 95 L 73 95 Z M 73 30 " clip-rule="nonzero"/></clipPath><clipPath id="18f385325b"><path d="M 75.300781 90.976562 C 76.5 89.851562 79.199219 89.773438 79.949219 90.300781 C 80.398438 90.675781 80.550781 91.5 80.550781 92.023438 C 80.550781 92.550781 80.324219 93.226562 79.949219 93.601562 C 79.574219 93.976562 78.976562 94.425781 78.449219 94.425781 C 77.851562 94.425781 76.875 94.050781 76.425781 93.601562 C 76.050781 93.226562 75.824219 92.625 75.824219 92.101562 C 75.824219 91.425781 76.949219 90.523438 76.949219 89.773438 C 76.949219 89.023438 76.199219 88.425781 76.050781 87.449219 C 75.75 85.726562 76.5 83.023438 76.425781 80.324219 C 76.351562 76.875 75.449219 72.675781 75.375 68.550781 C 75.300781 63.898438 76.199219 59.101562 76.050781 53.699219 C 75.824219 47.25 72.675781 35.699219 73.648438 32.398438 C 73.949219 31.273438 74.625 30.675781 75.300781 30.375 C 75.976562 30.074219 77.25 30.148438 77.851562 30.601562 C 78.449219 31.050781 79.050781 32.101562 79.050781 32.851562 C 79.050781 33.601562 78.523438 34.648438 77.925781 35.101562 C 77.324219 35.550781 76.050781 35.773438 75.375 35.476562 C 74.699219 35.175781 73.875 34.273438 73.726562 33.523438 C 73.574219 32.773438 73.800781 31.574219 74.324219 31.050781 C 74.851562 30.449219 75.976562 30.074219 76.726562 30.148438 C 77.476562 30.226562 78.300781 30.824219 78.824219 31.648438 C 79.726562 33.074219 80.101562 36.75 80.25 38.925781 C 80.398438 40.726562 79.949219 41.851562 80.023438 43.800781 C 80.175781 46.726562 81.300781 50.773438 81.449219 54.601562 C 81.601562 59.023438 80.476562 64.425781 80.476562 68.851562 C 80.476562 72.75 81.300781 76.125 81.300781 79.949219 C 81.300781 84.148438 81.148438 91.199219 80.25 93.148438 C 79.949219 93.824219 79.5 94.050781 79.050781 94.273438 C 78.523438 94.5 77.851562 94.5 77.324219 94.273438 C 76.875 94.050781 76.351562 93.601562 76.125 93.148438 C 75.898438 92.699219 75.75 91.726562 76.050781 91.574219 C 76.5 91.273438 79.351562 92.550781 79.425781 93.148438 C 79.5 93.601562 78.523438 94.273438 78 94.5 C 77.476562 94.726562 76.875 94.800781 76.351562 94.574219 C 75.75 94.351562 75 93.675781 74.851562 93.074219 C 74.699219 92.476562 75.300781 90.976562 75.300781 90.976562 " clip-rule="nonzero"/></clipPath><clipPath id="93ef69b3bf"><path d="M 88.875 22 L 110 22 L 110 62.699219 L 88.875 62.699219 Z M 88.875 22 " clip-rule="nonzero"/></clipPath><clipPath id="987d4460f7"><path d="M 89.398438 37.648438 C 101.175781 27.449219 103.726562 22.875 105.824219 22.199219 C 106.949219 21.824219 108.300781 22.125 108.976562 22.800781 C 109.800781 23.625 109.726562 25.574219 109.800781 27.449219 C 109.949219 30.148438 109.273438 34.050781 108.898438 37.648438 C 108.449219 41.773438 107.925781 48.226562 107.25 50.851562 C 106.949219 52.050781 106.425781 52.351562 106.199219 53.398438 C 105.898438 55.050781 106.726562 58.273438 106.273438 59.773438 C 105.976562 60.75 105.523438 61.574219 104.851562 61.949219 C 104.175781 62.324219 102.976562 62.25 102.300781 61.875 C 101.625 61.5 101.023438 60.449219 100.875 59.773438 C 100.800781 59.175781 100.949219 58.5 101.25 58.050781 C 101.550781 57.601562 102 57.074219 102.601562 56.925781 C 103.273438 56.699219 104.550781 56.773438 105.148438 57.226562 C 105.75 57.675781 106.273438 58.800781 106.273438 59.550781 C 106.273438 60.300781 105.675781 61.351562 105.074219 61.800781 C 104.476562 62.25 103.199219 62.324219 102.523438 62.023438 C 101.851562 61.726562 101.175781 61.125 100.875 60.074219 C 100.125 57.75 101.398438 52.125 101.851562 47.476562 C 102.449219 41.773438 103.351562 31.574219 104.324219 28.425781 C 104.625 27.300781 104.851562 26.476562 105.375 26.25 C 105.976562 26.023438 107.625 26.625 107.773438 27.226562 C 108 28.351562 103.949219 31.949219 101.773438 33.75 C 99.824219 35.398438 97.125 36.449219 95.476562 37.800781 C 94.199219 38.851562 93.675781 40.574219 92.550781 41.023438 C 91.648438 41.398438 90.074219 41.175781 89.476562 40.726562 C 89.023438 40.425781 88.875 39.75 88.875 39.226562 C 88.875 38.699219 89.398438 37.648438 89.398438 37.648438 " clip-rule="nonzero"/></clipPath><clipPath id="ec06ea4054"><path d="M 43 24.148438 L 61.273438 24.148438 L 61.273438 63 L 43 63 Z M 43 24.148438 " clip-rule="nonzero"/></clipPath><clipPath id="f110542af0"><path d="M 57 44.398438 C 44.925781 27.601562 47.25 27.75 47.925781 28.199219 C 48.449219 28.574219 48.449219 29.476562 48.601562 30.449219 C 48.824219 32.175781 48.375 34.726562 48.601562 37.726562 C 48.976562 42.675781 52.199219 55.648438 51.375 57.148438 C 51.226562 57.449219 50.773438 57.226562 50.699219 57.449219 C 50.550781 57.824219 52.050781 58.875 52.050781 59.625 C 52.050781 60.523438 51 62.101562 50.175781 62.398438 C 49.351562 62.699219 47.550781 61.949219 47.023438 61.273438 C 46.574219 60.675781 46.5 59.398438 46.800781 58.726562 C 47.101562 58.050781 48.074219 57.300781 48.75 57.074219 C 49.273438 56.925781 49.949219 57 50.476562 57.300781 C 51.074219 57.675781 51.824219 58.574219 51.976562 59.324219 C 52.125 60.074219 51.75 61.351562 51.148438 61.800781 C 50.476562 62.324219 48.675781 62.625 47.851562 62.101562 C 46.800781 61.425781 46.648438 59.023438 46.125 57.148438 C 45.523438 54.898438 44.925781 51.976562 44.699219 49.648438 C 44.550781 47.699219 44.925781 45.976562 44.699219 44.175781 C 44.476562 42.375 43.5 41.023438 43.273438 38.851562 C 42.898438 35.699219 42.898438 29.175781 43.574219 26.925781 C 43.875 25.949219 44.101562 25.273438 44.773438 24.898438 C 45.601562 24.449219 47.101562 24.449219 48.449219 25.199219 C 51.75 27 60.449219 38.773438 60.976562 42.148438 C 61.199219 43.425781 60.523438 44.625 59.925781 45.074219 C 59.550781 45.375 58.800781 45.375 58.351562 45.300781 C 57.824219 45.226562 57 44.398438 57 44.398438 " clip-rule="nonzero"/></clipPath><clipPath id="c3c4e32a70"><path d="M 86 104 L 99.898438 104 L 99.898438 109 L 86 109 Z M 86 104 " clip-rule="nonzero"/></clipPath><clipPath id="9d55219da9"><path d="M 87.226562 106.574219 C 95.175781 104.25 97.351562 103.800781 98.476562 104.101562 C 99.148438 104.324219 99.824219 104.851562 99.824219 105.226562 C 99.824219 105.601562 99 106.425781 98.625 106.5 C 98.324219 106.574219 97.800781 106.273438 97.648438 105.976562 C 97.425781 105.601562 97.5 104.773438 97.726562 104.476562 C 97.949219 104.175781 98.773438 104.023438 99.148438 104.175781 C 99.449219 104.324219 99.824219 104.773438 99.824219 105.074219 C 99.824219 105.523438 99.375 106.125 98.773438 106.5 C 97.726562 107.101562 95.25 106.648438 93.449219 107.023438 C 91.574219 107.398438 89.023438 108.976562 87.824219 108.824219 C 87.148438 108.75 86.476562 108.226562 86.398438 107.851562 C 86.324219 107.476562 87.226562 106.574219 87.226562 106.574219 " clip-rule="nonzero"/></clipPath><clipPath id="4c2aac54f6"><path d="M 88.5 116.699219 L 119.25 116.699219 L 119.25 122.699219 L 88.5 122.699219 Z M 88.5 116.699219 " clip-rule="nonzero"/></clipPath><clipPath id="0e11b4ad29"><path d="M 89.476562 116.699219 C 118.949219 120.523438 119.175781 120.898438 119.101562 121.125 C 119.023438 121.425781 117.75 121.875 117.601562 121.726562 C 117.449219 121.574219 117.824219 120.300781 118.125 120.226562 C 118.351562 120.148438 119.101562 120.75 119.101562 121.050781 C 119.101562 121.351562 118.726562 121.726562 118.199219 121.949219 C 117.148438 122.398438 114.824219 121.875 112.199219 121.648438 C 107.023438 121.199219 92.023438 119.851562 89.476562 118.648438 C 88.875 118.351562 88.5 118.050781 88.5 117.75 C 88.5 117.449219 89.476562 116.699219 89.476562 116.699219 " clip-rule="nonzero"/></clipPath><clipPath id="22886165be"><path d="M 31.125 103 L 67.875 103 L 67.875 111.675781 L 31.125 111.675781 Z M 31.125 103 " clip-rule="nonzero"/></clipPath><clipPath id="e51f0d1a67"><path d="M 65.699219 111 C 60.976562 107.550781 58.5 106.875 55.949219 106.351562 C 52.648438 105.675781 48.300781 105.226562 44.476562 105.226562 C 40.574219 105.226562 34.050781 107.101562 32.550781 106.351562 C 32.023438 106.125 31.800781 105.449219 31.875 105.226562 C 32.023438 105 33.375 104.773438 33.523438 105 C 33.675781 105.226562 33.226562 106.273438 32.925781 106.351562 C 32.625 106.425781 31.949219 105.898438 31.875 105.601562 C 31.800781 105.300781 31.949219 104.925781 32.398438 104.625 C 33.75 103.726562 40.5 103.5 44.550781 103.425781 C 48.523438 103.351562 52.800781 103.5 56.476562 104.324219 C 59.925781 105.074219 64.273438 106.273438 66.074219 107.773438 C 67.050781 108.601562 67.800781 109.875 67.726562 110.550781 C 67.648438 111 66.976562 111.523438 66.601562 111.523438 C 66.300781 111.523438 65.699219 111 65.699219 111 " clip-rule="nonzero"/></clipPath><clipPath id="83190b1ac9"><path d="M 38.101562 118 L 60 118 L 60 125 L 38.101562 125 Z M 38.101562 118 " clip-rule="nonzero"/></clipPath><clipPath id="b738fb3ea7"><path d="M 58.800781 120.449219 C 47.550781 122.398438 41.925781 125.175781 40.125 124.949219 C 39.449219 124.875 38.925781 124.5 38.851562 124.125 C 38.773438 123.75 39.375 122.925781 39.75 122.851562 C 40.050781 122.773438 40.574219 123 40.726562 123.226562 C 40.949219 123.523438 41.023438 124.199219 40.800781 124.5 C 40.574219 124.800781 39.824219 125.023438 39.523438 124.949219 C 39.226562 124.875 38.925781 124.5 38.851562 124.199219 C 38.773438 123.824219 38.925781 123.375 39.375 123 C 40.875 121.648438 49.5 119.625 53.175781 118.875 C 55.5 118.425781 58.050781 117.824219 59.101562 118.273438 C 59.625 118.5 60 119.101562 59.925781 119.476562 C 59.851562 119.851562 58.800781 120.449219 58.800781 120.449219 " clip-rule="nonzero"/></clipPath><clipPath id="e83004a063"><path d="M 46.199219 31 L 58 31 L 58 55.574219 L 46.199219 55.574219 Z M 46.199219 31 " clip-rule="nonzero"/></clipPath><clipPath id="ea21fa5a90"><path d="M 49.273438 32.851562 C 52.5 53.625 51.375 53.550781 51.148438 53.25 C 50.699219 52.574219 55.125 48.898438 55.050781 46.199219 C 54.976562 42.523438 47.175781 35.699219 47.101562 33.375 C 47.023438 32.550781 47.550781 31.726562 48 31.574219 C 48.375 31.425781 49.351562 31.800781 49.574219 32.175781 C 49.800781 32.550781 49.648438 33.449219 49.425781 33.75 C 49.199219 34.050781 48.601562 34.273438 48.226562 34.199219 C 47.773438 34.125 47.101562 33.523438 47.023438 33.074219 C 46.949219 32.699219 47.175781 32.101562 47.476562 31.875 C 47.851562 31.648438 48.675781 31.574219 49.425781 32.023438 C 51.523438 33.300781 57.601562 41.773438 57.75 45.898438 C 57.824219 49.125 54.523438 53.324219 53.175781 54.675781 C 52.648438 55.199219 52.050781 55.5 51.601562 55.5 C 51.148438 55.5 50.773438 55.351562 50.398438 54.75 C 48.976562 52.574219 47.101562 38.398438 46.949219 34.800781 C 46.875 33.449219 46.875 32.476562 47.25 32.023438 C 47.550781 31.726562 48.226562 31.574219 48.523438 31.726562 C 48.898438 31.875 49.273438 32.851562 49.273438 32.851562 " clip-rule="nonzero"/></clipPath><clipPath id="373f65aa11"><path d="M 48 37 L 55.949219 37 L 55.949219 52.5 L 48 52.5 Z M 48 37 " clip-rule="nonzero"/></clipPath><clipPath id="33082cc66a"><path d="M 50.773438 38.625 C 52.648438 49.949219 52.800781 50.550781 52.574219 51.148438 C 52.351562 51.601562 51.824219 52.199219 51.449219 52.199219 C 51 52.199219 50.101562 51.523438 50.023438 51.148438 C 49.949219 50.773438 50.699219 50.476562 50.773438 49.875 C 51 48.449219 49.125 44.175781 48.976562 42.300781 C 48.898438 41.175781 48.675781 40.125 49.125 39.675781 C 49.5 39.226562 50.773438 39.074219 51.300781 39.375 C 51.976562 39.75 52.199219 41.175781 52.5 42.449219 C 52.949219 44.398438 53.851562 49.875 53.324219 50.175781 C 53.101562 50.324219 52.425781 49.800781 52.199219 49.351562 C 51.824219 48.601562 52.351562 47.023438 52.125 45.675781 C 51.824219 44.023438 49.949219 41.398438 50.25 40.425781 C 50.476562 39.824219 51.300781 39.375 51.75 39.449219 C 52.199219 39.449219 52.949219 40.199219 52.875 40.5 C 52.800781 40.875 50.550781 41.398438 50.25 41.101562 C 50.101562 40.949219 50.25 40.125 50.550781 39.898438 C 50.925781 39.601562 51.976562 39.601562 52.574219 39.976562 C 53.625 40.648438 54.75 43.648438 55.050781 45.375 C 55.351562 46.800781 55.273438 48.898438 54.824219 49.574219 C 54.523438 49.949219 54 50.101562 53.625 50.101562 C 53.25 50.101562 52.726562 49.800781 52.574219 49.5 C 52.425781 49.050781 52.726562 47.851562 53.101562 47.625 C 53.476562 47.398438 54.824219 47.851562 54.976562 48.226562 C 55.125 48.601562 54.675781 49.800781 54.226562 50.023438 C 53.851562 50.175781 52.949219 49.949219 52.648438 49.574219 C 52.199219 48.976562 52.949219 47.398438 52.726562 46.125 C 52.425781 44.398438 49.949219 41.476562 50.25 40.425781 C 50.398438 39.898438 51.300781 39.449219 51.75 39.523438 C 52.199219 39.601562 52.949219 40.351562 52.875 40.574219 C 52.800781 40.949219 50.398438 41.324219 50.25 41.101562 C 50.101562 40.875 51 39.523438 51.449219 39.449219 C 51.824219 39.375 52.351562 39.75 52.800781 40.199219 C 53.625 41.101562 54.601562 43.726562 54.824219 45.375 C 55.050781 46.800781 54.976562 48.375 54.449219 49.425781 C 54 50.398438 52.800781 51.601562 52.125 51.601562 C 51.601562 51.601562 51 50.851562 50.699219 50.175781 C 50.25 49.050781 50.773438 46.875 50.550781 45.226562 C 50.324219 43.425781 48.75 40.574219 49.125 39.675781 C 49.273438 39.226562 49.800781 39 50.175781 39 C 50.625 39 51.148438 39.148438 51.523438 39.675781 C 52.351562 40.726562 53.023438 44.625 53.101562 46.800781 C 53.175781 48.601562 53.023438 51.148438 52.273438 51.75 C 51.824219 52.125 50.851562 52.199219 50.324219 51.75 C 48.898438 50.550781 47.699219 40.199219 48.449219 38.398438 C 48.75 37.800781 49.351562 37.425781 49.726562 37.5 C 50.101562 37.574219 50.773438 38.625 50.773438 38.625 " clip-rule="nonzero"/></clipPath><clipPath id="bd4a8560ef"><path d="M 93 31 L 104.476562 31 L 104.476562 54.449219 L 93 54.449219 Z M 93 31 " clip-rule="nonzero"/></clipPath><clipPath id="249185ca77"><path d="M 104.25 32.324219 C 104.25 46.199219 103.726562 50.023438 103.425781 51.824219 C 103.273438 52.648438 103.351562 53.175781 103.050781 53.550781 C 102.75 53.925781 102.148438 54.300781 101.625 54.148438 C 100.800781 53.925781 99.976562 52.574219 99.074219 51.148438 C 97.351562 48.523438 92.476562 42.226562 93.226562 38.851562 C 93.898438 35.851562 99.898438 31.949219 101.773438 31.648438 C 102.523438 31.5 103.351562 31.949219 103.574219 32.398438 C 103.726562 32.773438 103.5 33.75 103.125 33.976562 C 102.75 34.199219 101.476562 34.050781 101.25 33.675781 C 101.023438 33.300781 101.25 31.949219 101.625 31.726562 C 102 31.5 103.199219 31.949219 103.5 32.25 C 103.726562 32.476562 103.800781 32.773438 103.648438 33.148438 C 103.351562 33.976562 101.25 35.476562 99.898438 36.449219 C 98.550781 37.425781 95.773438 37.726562 95.476562 39.148438 C 95.023438 41.101562 99.675781 45.449219 101.023438 48.074219 C 102 49.949219 103.273438 52.351562 103.125 53.25 C 103.050781 53.625 102.824219 53.851562 102.523438 54 C 102.226562 54.148438 101.625 54.226562 101.324219 54.074219 C 101.023438 53.925781 100.726562 53.699219 100.574219 53.101562 C 99.824219 50.625 100.574219 34.351562 101.925781 32.023438 C 102.300781 31.425781 102.824219 31.125 103.199219 31.199219 C 103.574219 31.273438 104.25 32.324219 104.25 32.324219 " clip-rule="nonzero"/></clipPath><clipPath id="03cbed5e73"><path d="M 94 33 L 103 33 L 103 50.625 L 94 50.625 Z M 94 33 " clip-rule="nonzero"/></clipPath><clipPath id="5ff0b6f086"><path d="M 100.351562 36.449219 C 99.824219 42 99.300781 42.226562 98.925781 42.226562 C 98.550781 42.226562 98.101562 41.851562 97.875 41.324219 C 97.351562 40.125 97.425781 34.949219 98.25 33.976562 C 98.699219 33.523438 99.675781 33.375 100.125 33.675781 C 100.726562 33.976562 100.875 35.25 101.175781 36.300781 C 101.550781 37.726562 102.601562 40.351562 102.148438 41.324219 C 101.925781 41.925781 101.023438 42.449219 100.574219 42.375 C 100.199219 42.300781 99.75 41.773438 99.601562 41.25 C 99.300781 40.199219 99.675781 37.351562 99.976562 36.375 C 100.125 35.851562 100.273438 35.476562 100.574219 35.324219 C 100.949219 35.175781 101.851562 35.101562 102.226562 35.550781 C 103.125 36.523438 103.125 42.300781 102.675781 43.800781 C 102.523438 44.398438 102.226562 44.851562 101.851562 45 C 101.476562 45.148438 100.726562 44.851562 100.273438 44.398438 C 99.449219 43.5 98.550781 40.199219 98.550781 39.074219 C 98.550781 38.550781 98.699219 38.175781 99 37.949219 C 99.300781 37.726562 100.050781 37.648438 100.425781 37.800781 C 100.726562 37.949219 100.875 38.175781 101.023438 38.550781 C 101.324219 39.601562 101.101562 43.351562 100.726562 44.550781 C 100.5 45.148438 100.273438 45.601562 99.898438 45.75 C 99.523438 45.898438 98.773438 45.601562 98.324219 45.148438 C 97.5 44.25 96.675781 40.949219 96.75 39.75 C 96.824219 39.074219 97.125 38.476562 97.5 38.25 C 97.875 38.101562 98.625 38.101562 98.925781 38.476562 C 99.523438 39.148438 99.375 42.75 98.851562 43.648438 C 98.550781 44.101562 97.949219 44.398438 97.574219 44.324219 C 97.199219 44.25 96.75 43.875 96.449219 43.351562 C 95.925781 42.300781 95.625 38.773438 96.074219 37.800781 C 96.300781 37.351562 96.675781 37.050781 97.050781 37.050781 C 97.425781 36.976562 98.175781 37.273438 98.398438 37.726562 C 98.699219 38.324219 98.476562 39.898438 98.101562 40.574219 C 97.875 41.101562 97.425781 41.550781 96.976562 41.625 C 96.523438 41.699219 95.773438 41.476562 95.398438 41.101562 C 95.023438 40.726562 94.648438 39.976562 94.726562 39.449219 C 94.800781 39 95.324219 38.324219 95.699219 38.25 C 96.074219 38.175781 96.75 38.398438 97.125 38.773438 C 97.648438 39.375 97.199219 41.101562 97.726562 42.148438 C 98.324219 43.351562 100.050781 44.398438 100.648438 45.601562 C 101.175781 46.648438 101.699219 48 101.476562 48.75 C 101.25 49.351562 100.351562 50.101562 99.976562 50.023438 C 99.523438 49.949219 98.851562 48.375 99.074219 47.925781 C 99.226562 47.550781 100.199219 47.324219 100.574219 47.398438 C 100.949219 47.476562 101.324219 48 101.398438 48.375 C 101.476562 48.75 101.398438 49.273438 101.175781 49.574219 C 100.949219 49.875 100.351562 50.101562 99.976562 50.023438 C 99.601562 49.949219 99.074219 49.648438 98.925781 49.273438 C 98.773438 48.898438 98.925781 48 99.226562 47.699219 C 99.523438 47.398438 100.5 47.324219 100.875 47.550781 C 101.25 47.773438 101.398438 49.050781 101.398438 49.050781 C 101.398438 49.050781 100.875 47.625 100.949219 47.625 C 101.023438 47.625 101.476562 48.074219 101.476562 48.375 C 101.550781 48.75 101.25 49.574219 100.875 49.800781 C 100.5 50.023438 99.75 50.101562 99.375 49.800781 C 98.851562 49.425781 99 48 98.476562 47.023438 C 97.726562 45.675781 95.625 44.175781 95.023438 42.75 C 94.574219 41.625 94.5 40.273438 94.726562 39.449219 C 94.875 38.925781 95.324219 38.324219 95.699219 38.25 C 96.148438 38.175781 97.425781 39.148438 97.351562 39.375 C 97.273438 39.601562 95.925781 39.898438 95.699219 39.675781 C 95.476562 39.375 96.226562 37.351562 96.75 37.125 C 97.199219 36.898438 98.023438 37.199219 98.398438 37.726562 C 99.074219 38.625 99.449219 42.300781 99 43.351562 C 98.773438 43.875 98.25 44.324219 97.875 44.324219 C 97.425781 44.324219 96.75 43.875 96.449219 43.351562 C 96 42.449219 96.375 39.675781 96.824219 38.851562 C 97.050781 38.398438 97.425781 38.175781 97.800781 38.101562 C 98.175781 38.023438 98.550781 38.175781 98.925781 38.476562 C 99.601562 39.074219 100.199219 41.476562 100.5 42.601562 C 100.648438 43.351562 100.875 44.023438 100.726562 44.550781 C 100.574219 45 100.273438 45.675781 99.898438 45.75 C 99.449219 45.824219 98.476562 45.375 98.175781 44.851562 C 97.800781 44.25 98.101562 43.199219 98.175781 42.226562 C 98.25 41.023438 98.175781 38.851562 98.773438 38.175781 C 99.148438 37.726562 99.898438 37.5 100.425781 37.800781 C 101.398438 38.324219 102.824219 42.601562 102.675781 43.800781 C 102.601562 44.398438 102.226562 44.925781 101.851562 45 C 101.398438 45.074219 100.5 44.699219 100.125 44.101562 C 99.375 42.824219 99.601562 37.726562 99.976562 36.375 C 100.125 35.851562 100.273438 35.476562 100.574219 35.324219 C 100.949219 35.175781 101.851562 35.175781 102.226562 35.550781 C 102.898438 36.300781 102.75 40.199219 102.148438 41.324219 C 101.773438 41.925781 101.023438 42.375 100.574219 42.375 C 100.199219 42.375 99.976562 42 99.675781 41.550781 C 99 40.351562 97.648438 35.023438 98.25 33.976562 C 98.476562 33.523438 99.226562 33.300781 99.601562 33.375 C 99.976562 33.449219 100.273438 33.675781 100.5 34.125 C 101.023438 35.25 100.800781 39.75 100.273438 41.023438 C 100.050781 41.625 99.601562 42.148438 99.226562 42.226562 C 98.851562 42.300781 98.175781 41.851562 97.875 41.324219 C 97.351562 40.351562 97.648438 36.824219 98.175781 35.925781 C 98.476562 35.476562 98.925781 35.25 99.300781 35.324219 C 99.675781 35.398438 100.351562 36.449219 100.351562 36.449219 " clip-rule="nonzero"/></clipPath><clipPath id="822d781fed"><path d="M 103 48 L 107 48 L 107 63.976562 L 103 63.976562 Z M 103 48 " clip-rule="nonzero"/></clipPath><clipPath id="fc7a720f87"><path d="M 106.875 49.351562 C 105.523438 63.449219 104.773438 63.75 104.324219 63.601562 C 103.949219 63.449219 103.425781 62.625 103.5 62.25 C 103.574219 61.800781 104.550781 61.050781 105 61.125 C 105.449219 61.199219 106.125 62.25 106.050781 62.699219 C 105.976562 63.148438 104.851562 63.75 104.398438 63.675781 C 104.023438 63.601562 103.726562 63.074219 103.5 62.398438 C 102.976562 60.375 103.574219 50.773438 104.625 49.050781 C 105 48.449219 105.523438 48.148438 105.898438 48.226562 C 106.273438 48.300781 106.875 49.351562 106.875 49.351562 " clip-rule="nonzero"/></clipPath><clipPath id="ff7320b559"><path d="M 104 46.5 L 108 46.5 L 108 63.75 L 104 63.75 Z M 104 46.5 " clip-rule="nonzero"/></clipPath><clipPath id="987f1b1821"><path d="M 107.101562 47.398438 C 107.625 57.976562 107.699219 61.273438 106.949219 62.398438 C 106.574219 62.925781 106.050781 63.300781 105.601562 63.226562 C 105.226562 63.148438 104.550781 62.550781 104.476562 62.175781 C 104.398438 61.800781 104.550781 61.199219 104.851562 60.976562 C 105.148438 60.75 106.050781 60.601562 106.425781 60.824219 C 106.726562 60.976562 107.101562 61.5 107.023438 61.875 C 106.949219 62.324219 106.199219 63.226562 105.75 63.226562 C 105.375 63.226562 104.699219 62.851562 104.476562 62.25 C 103.949219 61.050781 105.148438 57.675781 105.226562 55.273438 C 105.300781 52.800781 104.324219 48.976562 104.851562 47.625 C 105.074219 47.023438 105.523438 46.5 105.898438 46.5 C 106.273438 46.5 107.101562 47.398438 107.101562 47.398438 " clip-rule="nonzero"/></clipPath><clipPath id="6e484ddd61"><path d="M 43 36 L 49.800781 36 L 49.800781 63.601562 L 43 63.601562 Z M 43 36 " clip-rule="nonzero"/></clipPath><clipPath id="864cb8f49c"><path d="M 45.375 37.648438 C 49.125 63 48.148438 63.523438 47.699219 63.449219 C 47.324219 63.449219 46.875 62.851562 46.800781 62.476562 C 46.726562 62.101562 46.949219 61.574219 47.175781 61.273438 C 47.398438 60.976562 47.925781 60.75 48.300781 60.824219 C 48.675781 60.898438 49.199219 61.199219 49.351562 61.574219 C 49.5 61.875 49.5 62.550781 49.273438 62.851562 C 49.050781 63.148438 48.601562 63.523438 48.226562 63.523438 C 47.773438 63.523438 47.25 63.226562 46.875 62.625 C 45.75 60.824219 44.851562 52.425781 44.625 49.425781 C 44.550781 47.851562 44.925781 47.175781 44.773438 45.824219 C 44.550781 44.023438 43.199219 41.324219 43.050781 39.675781 C 42.976562 38.550781 42.976562 37.351562 43.351562 36.898438 C 43.648438 36.601562 44.25 36.449219 44.625 36.601562 C 44.925781 36.75 45.375 37.648438 45.375 37.648438 " clip-rule="nonzero"/></clipPath><clipPath id="643eddd26b"><path d="M 43 39.148438 L 48.226562 39.148438 L 48.226562 54 L 43 54 Z M 43 39.148438 " clip-rule="nonzero"/></clipPath><clipPath id="5ccda282d5"><path d="M 45.824219 52.949219 C 43.425781 45.375 43.273438 41.851562 43.726562 40.726562 C 43.949219 40.273438 44.25 39.898438 44.625 39.898438 C 45.074219 39.898438 46.351562 40.949219 46.273438 41.324219 C 46.199219 41.699219 44.851562 42.375 44.398438 42.300781 C 44.101562 42.226562 43.800781 41.699219 43.726562 41.324219 C 43.648438 40.949219 43.875 40.425781 44.175781 40.199219 C 44.398438 39.976562 45 39.824219 45.300781 39.898438 C 45.675781 39.976562 45.976562 40.273438 46.199219 40.726562 C 46.648438 41.851562 45.75 45.300781 46.125 47.324219 C 46.425781 49.125 48.226562 51.226562 48.074219 52.351562 C 48 52.949219 47.625 53.550781 47.25 53.625 C 46.875 53.699219 45.824219 52.949219 45.824219 52.949219 " clip-rule="nonzero"/></clipPath></defs><g clip-path="url(#b8266d84b5)"><g clip-path="url(#f378bfc7b4)"><path fill="#ffde59" d="M 9.238281 17.460938 L 140.761719 17.460938 L 140.761719 132.539062 L 9.238281 132.539062 Z M 9.238281 17.460938 " fill-opacity="1" fill-rule="nonzero"/></g></g><g clip-path="url(#4df6e18288)"><g clip-path="url(#2e24ddd0f1)"><path fill="#545454" d="M 4.726562 12.898438 L 78.976562 12.898438 L 78.976562 136.648438 L 4.726562 136.648438 Z M 4.726562 12.898438 " fill-opacity="1" fill-rule="nonzero"/></g></g><g clip-path="url(#014e5499a4)"><g clip-path="url(#4b5861c7e3)"><path fill="#545454" d="M 4.800781 127.273438 L 14.550781 127.273438 L 14.550781 137.023438 L 4.800781 137.023438 Z M 4.800781 127.273438 " fill-opacity="1" fill-rule="nonzero"/></g></g><g clip-path="url(#ad62b3f993)"><g clip-path="url(#76c1656f86)"><path fill="#545454" d="M 4.425781 126.148438 L 146.925781 126.148438 L 146.925781 138.898438 L 4.425781 138.898438 Z M 4.425781 126.148438 " fill-opacity="1" fill-rule="nonzero"/></g></g><g clip-path="url(#78949bb693)"><g clip-path="url(#147b6da51a)"><path fill="#545454" d="M 7.949219 126.523438 L 31.949219 126.523438 L 31.949219 137.773438 L 7.949219 137.773438 Z M 7.949219 126.523438 " fill-opacity="1" fill-rule="nonzero"/></g></g><g clip-path="url(#415dae0a74)"><g clip-path="url(#8c10cf13c9)"><path fill="#545454" d="M 70.273438 12.898438 L 147.523438 12.898438 L 147.523438 138.148438 L 70.273438 138.148438 Z M 70.273438 12.898438 " fill-opacity="1" fill-rule="nonzero"/></g></g><g clip-path="url(#5b5ba10d02)"><g clip-path="url(#409f8b0e12)"><path fill="#545454" d="M 70.199219 26.699219 L 82.949219 26.699219 L 82.949219 98.699219 L 70.199219 98.699219 Z M 70.199219 26.699219 " fill-opacity="1" fill-rule="nonzero"/></g></g><g clip-path="url(#08e6a105bc)"><g clip-path="url(#42f39e8aed)"><path fill="#545454" d="M 66.074219 103.574219 L 88.574219 103.574219 L 88.574219 125.324219 L 66.074219 125.324219 Z M 66.074219 103.574219 " fill-opacity="1" fill-rule="nonzero"/></g></g><g clip-path="url(#d48c285fca)"><g clip-path="url(#8ffcd294fe)"><path fill="#545454" d="M 67.425781 106.574219 L 85.425781 106.574219 L 85.425781 120.824219 L 67.425781 120.824219 Z M 67.425781 106.574219 " fill-opacity="1" fill-rule="nonzero"/></g></g><g clip-path="url(#f937a5fcc7)"><g clip-path="url(#345e8a6fb4)"><path fill="#545454" d="M 69.898438 28.273438 L 82.648438 28.273438 L 82.648438 98.023438 L 69.898438 98.023438 Z M 69.898438 28.273438 " fill-opacity="1" fill-rule="nonzero"/></g></g><g clip-path="url(#31c0584a9f)"><g clip-path="url(#18f385325b)"><path fill="#545454" d="M 70.648438 27.148438 L 84.148438 27.148438 L 84.148438 97.648438 L 70.648438 97.648438 Z M 70.648438 27.148438 " fill-opacity="1" fill-rule="nonzero"/></g></g><g clip-path="url(#93ef69b3bf)"><g clip-path="url(#987d4460f7)"><path fill="#545454" d="M 85.875 19.199219 L 112.875 19.199219 L 112.875 64.949219 L 85.875 64.949219 Z M 85.875 19.199219 " fill-opacity="1" fill-rule="nonzero"/></g></g><g clip-path="url(#ec06ea4054)"><g clip-path="url(#f110542af0)"><path fill="#545454" d="M 40.273438 21.898438 L 64.273438 21.898438 L 64.273438 65.398438 L 40.273438 65.398438 Z M 40.273438 21.898438 " fill-opacity="1" fill-rule="nonzero"/></g></g><g clip-path="url(#c3c4e32a70)"><g clip-path="url(#9d55219da9)"><path fill="#545454" d="M 83.398438 101.101562 L 102.898438 101.101562 L 102.898438 111.601562 L 83.398438 111.601562 Z M 83.398438 101.101562 " fill-opacity="1" fill-rule="nonzero"/></g></g><g clip-path="url(#4c2aac54f6)"><g clip-path="url(#0e11b4ad29)"><path fill="#545454" d="M 85.5 113.699219 L 122.25 113.699219 L 122.25 124.949219 L 85.5 124.949219 Z M 85.5 113.699219 " fill-opacity="1" fill-rule="nonzero"/></g></g><g clip-path="url(#22886165be)"><g clip-path="url(#e51f0d1a67)"><path fill="#545454" d="M 28.875 100.425781 L 70.875 100.425781 L 70.875 114.675781 L 28.875 114.675781 Z M 28.875 100.425781 " fill-opacity="1" fill-rule="nonzero"/></g></g><g clip-path="url(#83190b1ac9)"><g clip-path="url(#b738fb3ea7)"><path fill="#545454" d="M 35.851562 115.273438 L 62.851562 115.273438 L 62.851562 128.023438 L 35.851562 128.023438 Z M 35.851562 115.273438 " fill-opacity="1" fill-rule="nonzero"/></g></g><g clip-path="url(#e83004a063)"><g clip-path="url(#ea21fa5a90)"><path fill="#ffde59" d="M 43.949219 28.574219 L 60.449219 28.574219 L 60.449219 58.574219 L 43.949219 58.574219 Z M 43.949219 28.574219 " fill-opacity="1" fill-rule="nonzero"/></g></g><g clip-path="url(#373f65aa11)"><g clip-path="url(#33082cc66a)"><path fill="#ffde59" d="M 45.449219 34.5 L 58.199219 34.5 L 58.199219 55.5 L 45.449219 55.5 Z M 45.449219 34.5 " fill-opacity="1" fill-rule="nonzero"/></g></g><g clip-path="url(#bd4a8560ef)"><g clip-path="url(#249185ca77)"><path fill="#ffde59" d="M 90.226562 28.199219 L 107.476562 28.199219 L 107.476562 57.449219 L 90.226562 57.449219 Z M 90.226562 28.199219 " fill-opacity="1" fill-rule="nonzero"/></g></g><g clip-path="url(#03cbed5e73)"><g clip-path="url(#5ff0b6f086)"><path fill="#ffde59" d="M 91.726562 30.375 L 105.976562 30.375 L 105.976562 52.875 L 91.726562 52.875 Z M 91.726562 30.375 " fill-opacity="1" fill-rule="nonzero"/></g></g><g clip-path="url(#822d781fed)"><g clip-path="url(#fc7a720f87)"><path fill="#545454" d="M 100.5 45.226562 L 110.25 45.226562 L 110.25 66.976562 L 100.5 66.976562 Z M 100.5 45.226562 " fill-opacity="1" fill-rule="nonzero"/></g></g><g clip-path="url(#ff7320b559)"><g clip-path="url(#987f1b1821)"><path fill="#545454" d="M 101.476562 43.5 L 110.476562 43.5 L 110.476562 66 L 101.476562 66 Z M 101.476562 43.5 " fill-opacity="1" fill-rule="nonzero"/></g></g><g clip-path="url(#6e484ddd61)"><g clip-path="url(#864cb8f49c)"><path fill="#545454" d="M 40.050781 33.601562 L 52.800781 33.601562 L 52.800781 66.601562 L 40.050781 66.601562 Z M 40.050781 33.601562 " fill-opacity="1" fill-rule="nonzero"/></g></g><g clip-path="url(#643eddd26b)"><g clip-path="url(#5ccda282d5)"><path fill="#545454" d="M 40.726562 36.898438 L 51.226562 36.898438 L 51.226562 56.398438 L 40.726562 56.398438 Z M 40.726562 36.898438 " fill-opacity="1" fill-rule="nonzero"/></g></g></svg>